<mxfile host="app.diagrams.net" agent="Mozilla/5.0 (Macintosh; Intel Mac OS X 10_15_7) AppleWebKit/537.36 (KHTML, like Gecko) Chrome/134.0.0.0 Safari/537.36" version="26.1.1">
  <diagram name="Page-1" id="xXnWWncxJOyoRs3wPPJi">
    <mxGraphModel dx="785" dy="653" grid="0" gridSize="10" guides="1" tooltips="1" connect="1" arrows="1" fold="1" page="0" pageScale="1" pageWidth="850" pageHeight="1100" math="0" shadow="0">
      <root>
        <mxCell id="0" />
        <mxCell id="1" parent="0" />
        <mxCell id="GwkhHQ8WCr_lFpzRpkYW-1" value="Class1" style="swimlane;fontStyle=1;align=center;verticalAlign=middle;childLayout=stackLayout;horizontal=1;startSize=25;horizontalStack=0;resizeParent=1;resizeParentMax=0;resizeLast=0;collapsible=0;marginBottom=0;html=1;whiteSpace=wrap;" vertex="1" parent="1">
          <mxGeometry x="10" y="161" width="140" height="75" as="geometry" />
        </mxCell>
        <mxCell id="GwkhHQ8WCr_lFpzRpkYW-2" value="&amp;lt;&amp;lt;stereotype1&amp;gt;&amp;gt;" style="text;html=1;strokeColor=none;fillColor=none;align=center;verticalAlign=middle;spacingLeft=4;spacingRight=4;overflow=hidden;rotatable=0;points=[[0,0.5],[1,0.5]];portConstraint=eastwest;whiteSpace=wrap;" vertex="1" parent="GwkhHQ8WCr_lFpzRpkYW-1">
          <mxGeometry y="25" width="140" height="25" as="geometry" />
        </mxCell>
        <mxCell id="GwkhHQ8WCr_lFpzRpkYW-3" value="stereotype property 1" style="text;html=1;strokeColor=none;fillColor=none;align=left;verticalAlign=middle;spacingLeft=4;spacingRight=4;overflow=hidden;rotatable=0;points=[[0,0.5],[1,0.5]];portConstraint=eastwest;whiteSpace=wrap;" vertex="1" parent="GwkhHQ8WCr_lFpzRpkYW-1">
          <mxGeometry y="50" width="140" height="25" as="geometry" />
        </mxCell>
      </root>
    </mxGraphModel>
  </diagram>
</mxfile>
